# Export of Scene1
# from Aaro4130 OBJ Exporter v2.0
mtllib LL2_02.mtl
v -5 1 -1.15
v -6.15 1 5.625396E-16
v -5 -0.15 3.380693E-15
v -5 2.15 -3.380693E-15
v -3.85 1 -5.625396E-16
v -5 1 1.15
v -5 1 -1.15
v -5 -0.15 3.380693E-15
v -3.85 1 -5.625396E-16
v -5 2.15 -3.380693E-15
v -6.15 1 5.625396E-16
v -5 1 -1.15
v -5 2.15 -3.380693E-15
v -5 1 -1.15
v -3.85 1 -5.625396E-16
v -5 1 1.15
v -5 -0.15 3.380693E-15
v -6.15 1 5.625396E-16
v -3.85 1 -5.625396E-16
v -5 -0.15 3.380693E-15
v -5 1 1.15
v -5 2.15 -3.380693E-15
v -5 1 1.15
v -6.15 1 5.625396E-16
vn -0.3333333 -0.3333333 -0.3333333
vn -0.3333333 -0.3333333 -0.3333333
vn -0.3333333 -0.3333333 -0.3333333
vn 0.3333333 0.3333333 0.3333333
vn 0.3333333 0.3333333 0.3333333
vn 0.3333333 0.3333333 0.3333333
vn 0.3333333 -0.3333333 -0.3333333
vn 0.3333333 -0.3333333 -0.3333333
vn 0.3333333 -0.3333333 -0.3333333
vn -0.3333333 0.3333333 -0.3333333
vn -0.3333333 0.3333333 -0.3333333
vn -0.3333333 0.3333333 -0.3333333
vn 0.3333333 0.3333333 -0.3333333
vn 0.3333333 0.3333333 -0.3333333
vn 0.3333333 0.3333333 -0.3333333
vn -0.3333333 -0.3333333 0.3333333
vn -0.3333333 -0.3333333 0.3333333
vn -0.3333333 -0.3333333 0.3333333
vn 0.3333333 -0.3333333 0.3333333
vn 0.3333333 -0.3333333 0.3333333
vn 0.3333333 -0.3333333 0.3333333
vn -0.3333333 0.3333333 0.3333333
vn -0.3333333 0.3333333 0.3333333
vn -0.3333333 0.3333333 0.3333333
vt 4.891649E-16 -1
vt 1 4.891649E-16
vt 0 2.939733E-15
vt 0 -2.939733E-15
vt -1 -4.891649E-16
vt -4.891649E-16 1
vt 4.891649E-16 -1
vt 0 2.939733E-15
vt -1 -4.891649E-16
vt 0 -2.939733E-15
vt 1 4.891649E-16
vt 4.891649E-16 -1
vt 0 -2.939733E-15
vt 4.891649E-16 -1
vt -1 -4.891649E-16
vt -4.891649E-16 1
vt 0 2.939733E-15
vt 1 4.891649E-16
vt -1 -4.891649E-16
vt 0 2.939733E-15
vt -4.891649E-16 1
vt 0 -2.939733E-15
vt -4.891649E-16 1
vt 1 4.891649E-16
usemtl Line_02 (Instance)
f 3/3/3 2/2/2 1/1/1
f 6/6/6 5/5/5 4/4/4
f 9/9/9 8/8/8 7/7/7
f 12/12/12 11/11/11 10/10/10
f 15/15/15 14/14/14 13/13/13
f 18/18/18 17/17/17 16/16/16
f 21/21/21 20/20/20 19/19/19
f 24/24/24 23/23/23 22/22/22
